<?xml version="1.0" encoding="UTF-8" standalone="no"?>
<svg xmlns:dc="http://purl.org/dc/elements/1.1/"
  xmlns:cc="http://creativecommons.org/ns#"
  xmlns:rdf="http://www.w3.org/1999/02/22-rdf-syntax-ns#"
  xmlns:svg="http://www.w3.org/2000/svg"
  xmlns="http://www.w3.org/2000/svg"
  xmlns:sodipodi="http://sodipodi.sourceforge.net/DTD/sodipodi-0.dtd"
  xmlns:inkscape="http://www.inkscape.org/namespaces/inkscape" viewBox="0 0 2032.92 390.75601" height="390.75601" width="2032.92" xml:space="preserve" id="svg2" version="1.1" sodipodi:docname="kofi_stroke.svg" inkscape:version="0.92.2 (5c3e80d, 2017-08-06)">
  <sodipodi:namedview pagecolor="#ffffff" bordercolor="#666666" borderopacity="1" objecttolerance="10" gridtolerance="10" guidetolerance="10" inkscape:pageopacity="0" inkscape:pageshadow="2" inkscape:window-width="640" inkscape:window-height="480" id="namedview30" showgrid="false" inkscape:zoom="0.31973712" inkscape:cx="-312.75693" inkscape:cy="195.37801" inkscape:current-layer="svg2" />
  <metadata id="metadata8">
    <rdf:RDF>
      <cc:Work rdf:about="">
        <dc:format>image/svg+xml</dc:format>
        <dc:type rdf:resource="http://purl.org/dc/dcmitype/StillImage" />
        <dc:title></dc:title>
      </cc:Work>
    </rdf:RDF>
  </metadata>
  <defs id="defs6">
    <clipPath id="clipPath18" clipPathUnits="userSpaceOnUse">
      <path id="path16" d="M 0,293.068 H 1524.694 V 0 H 0 Z" />
    </clipPath>
    <clipPath id="clipPath26" clipPathUnits="userSpaceOnUse">
      <path id="path24" d="M 4.57764e-5,293.067 H 1524.69 V -3.05176e-5 H 4.57764e-5 Z" />
    </clipPath>
    <clipPath id="clipPath46" clipPathUnits="userSpaceOnUse">
      <path id="path44" d="M 0,293.068 H 1524.694 V 0 H 0 Z" />
    </clipPath>
  </defs>
  <g id="g12" transform="matrix(1.3333333,0,0,-1.3333333,0,390.756)">
    <g id="g14" clip-path="url(#clipPath18)">
      <g id="g20">
        <g id="g22" />
        <g id="g34">
          <g clip-path="url(#clipPath26)" id="g32" style="opacity:0.19999701">
            <g transform="translate(1473.5156,293.0674)" id="g30">
              <path inkscape:connector-curvature="0" d="m 0,0 h -1422.337 c -28.265,0 -51.179,-22.913 -51.179,-51.178 v -190.711 c 0,-28.265 22.914,-51.178 51.179,-51.178 H 0 c 28.265,0 51.178,22.913 51.178,51.178 V -51.178 C 51.178,-22.913 28.265,0 0,0 m 0,-9 c 23.257,0 42.178,-18.921 42.178,-42.178 v -190.711 c 0,-23.257 -18.921,-42.178 -42.178,-42.178 h -1422.337 c -23.257,0 -42.179,18.921 -42.179,42.178 v 190.711 c 0,23.257 18.922,42.178 42.179,42.178 H 0" style="fill:#434b57;fill-opacity:1;fill-rule:nonzero;stroke:none" id="path28" />
            </g>
          </g>
        </g>
      </g>
    </g>
  </g>
  <g aria-label="Buy me a coffee" style="font-variant:normal;font-weight:bold;font-stretch:normal;font-size:162.3850708px;font-family:Quicksand;-inkscape-font-specification:Quicksand-Bold;writing-mode:lr-tb;fill:#434b57;fill-opacity:1;fill-rule:nonzero;stroke:none;stroke-width:1.33333325" id="text38">
    <path d="m 661.07391,178.13606 q 8.60641,3.41008 13.96511,10.39264 5.5211,6.98256 5.5211,18.02474 0,19.32383 -11.04219,26.95593 -11.04218,7.63209 -26.30638,7.63209 h -40.43388 q -4.22201,0 -7.14495,-2.76054 -2.76054,-2.92293 -2.76054,-7.14495 V 137.3774 q 0,-4.22201 2.76054,-6.98255 2.92294,-2.92294 7.14495,-2.92294 h 40.92104 q 30.85316,0 30.85316,28.90455 0,7.30733 -3.57247,12.9908 -3.41009,5.5211 -9.90549,8.7688 z m -7.6321,-18.18713 q 0,-6.65779 -3.41009,-9.90549 -3.2477,-3.41009 -9.25595,-3.41009 h -26.79353 v 25.33207 h 27.28069 q 4.87155,0 8.44402,-3.2477 3.73486,-3.2477 3.73486,-8.76879 z m -10.23026,62.51825 q 7.6321,0 11.85411,-4.05963 4.3844,-4.05962 4.3844,-11.85411 0,-9.58072 -5.03394,-12.50365 -5.03394,-2.92293 -12.34126,-2.92293 h -28.09262 v 31.34032 z" style="stroke-width:1.33333325" id="path4790" />
    <path d="m 761.96325,154.26545 q 4.22201,0 6.98256,2.92293 2.76054,2.76055 2.76054,6.98256 v 41.24581 q 0,17.53759 -9.7431,27.44308 -9.58072,9.90548 -27.44308,9.90548 -17.86236,0 -27.44308,-9.90548 -9.58072,-9.90549 -9.58072,-27.44308 v -41.24581 q 0,-4.22201 2.76055,-6.98256 2.76055,-2.92293 6.98256,-2.92293 4.22201,0 6.98256,2.92293 2.76054,2.76055 2.76054,6.98256 v 41.24581 q 0,9.90549 4.3844,14.77704 4.3844,4.70917 13.15319,4.70917 8.93118,0 13.31558,-4.70917 4.38439,-4.87155 4.38439,-14.77704 v -41.24581 q 0,-4.22201 2.76055,-6.98256 2.76055,-2.92293 6.98256,-2.92293 z" style="stroke-width:1.33333325" id="path4792" />
    <path d="m 857.42791,154.26545 q 4.22201,0 6.98256,2.92293 2.76054,2.76055 2.76054,6.98256 v 69.01366 q 0,21.11005 -11.36695,30.69077 -11.36696,9.74311 -30.36601,9.74311 -5.52109,0 -11.36696,-0.97431 -5.68347,-0.81193 -9.25594,-2.27339 -7.95687,-3.41009 -7.95687,-9.41834 0,-1.13669 0.48715,-2.59816 0.97431,-3.57247 3.2477,-5.52109 2.43578,-1.78624 5.19633,-1.78624 1.62385,0 3.08531,0.48716 1.1367,0.48715 3.89724,1.62385 2.92294,1.13669 6.00825,1.78624 3.2477,0.81192 6.65779,0.81192 11.52934,0 16.88805,-5.03394 5.52109,-4.87155 5.52109,-16.88804 v -1.62385 q -8.44402,10.55502 -26.30638,10.55502 -8.44403,0 -14.93943,-3.89724 -6.4954,-4.05962 -10.06787,-11.04218 -3.57247,-7.14494 -3.57247,-16.23851 v -47.41644 q 0,-4.22201 2.76054,-6.98256 2.76055,-2.92293 6.98256,-2.92293 4.22201,0 6.98256,2.92293 2.76054,2.76055 2.76054,6.98256 v 41.57058 q 0,10.23026 4.3844,14.77704 4.54678,4.3844 13.15319,4.3844 8.44403,0 12.99081,-4.87155 4.70916,-5.03394 4.70916,-14.28989 v -41.57058 q 0,-4.22201 2.76055,-6.98256 2.76055,-2.92293 6.98256,-2.92293 z" style="stroke-width:1.33333325" id="path4794" />
    <path d="m 1033.9709,152.6416 q 16.0761,0 22.2468,9.90549 6.1706,9.7431 6.1706,27.11831 v 41.57057 q 0,4.22202 -2.7605,7.14495 -2.7606,2.76054 -6.9826,2.76054 -4.222,0 -6.9826,-2.76054 -2.7605,-2.92293 -2.7605,-7.14495 V 189.6654 q 0,-8.93118 -3.5725,-13.96512 -3.4101,-5.19632 -12.1789,-5.19632 -9.0935,0 -14.2898,5.52109 -5.034,5.35871 -5.034,13.64035 v 41.57057 q 0,4.22202 -2.7605,7.14495 -2.7606,2.76054 -6.98258,2.76054 -4.22201,0 -6.98256,-2.76054 -2.76054,-2.92293 -2.76054,-7.14495 V 189.6654 q 0,-8.93118 -3.57247,-13.96512 -3.41009,-5.19632 -12.17888,-5.19632 -9.09357,0 -14.28989,5.52109 -5.03394,5.35871 -5.03394,13.64035 v 41.57057 q 0,4.22202 -2.76054,7.14495 -2.76055,2.76054 -6.98256,2.76054 -4.22201,0 -6.98256,-2.76054 -2.76055,-2.92293 -2.76055,-7.14495 v -67.06503 q 0,-4.22201 2.76055,-6.98256 2.76055,-2.92293 6.98256,-2.92293 4.22201,0 6.98256,2.92293 2.76054,2.76055 2.76054,6.98256 v 2.59816 q 4.3844,-5.84586 11.04219,-9.90549 6.82017,-4.22201 15.10181,-4.22201 20.46052,0 26.14396,17.86236 3.7349,-6.82017 11.2046,-12.34127 7.6321,-5.52109 17.2128,-5.52109 z" style="stroke-width:1.33333325" id="path4796" />
    <path d="m 1161.4229,195.67364 q -0.1624,3.89725 -3.0853,6.33302 -2.9229,2.43578 -6.8202,2.43578 h -53.5871 q 1.9487,9.58072 8.9312,15.10181 6.9826,5.35871 15.7514,5.35871 6.6578,0 10.3926,-1.1367 3.7349,-1.29908 5.8459,-2.59816 2.2734,-1.46147 3.0853,-1.94862 2.9229,-1.46147 5.5211,-1.46147 3.4101,0 5.8458,2.43578 2.4358,2.43578 2.4358,5.68348 0,4.38439 -4.5468,7.95687 -4.5467,3.73485 -12.1788,6.33301 -7.6321,2.59816 -15.4266,2.59816 -13.6404,0 -23.8706,-5.68347 -10.0679,-5.68348 -15.589,-15.58897 -5.5211,-10.06787 -5.5211,-22.57152 0,-13.96512 5.8459,-24.52015 5.8458,-10.55503 15.4266,-16.07612 9.5807,-5.68348 20.4605,-5.68348 10.7174,0 20.1357,5.84586 9.5807,5.84587 15.2642,15.75136 5.6835,9.90548 5.6835,21.43482 z m -41.0834,-25.16968 q -18.8367,0 -22.2468,17.69997 h 42.5449 v -1.13669 q -0.6495,-6.82018 -6.6578,-11.69173 -6.0082,-4.87155 -13.6403,-4.87155 z" style="stroke-width:1.33333325" id="path4798" />
    <path d="m 1293.3405,152.6416 q 4.222,0 6.9825,2.76055 2.7606,2.76054 2.7606,7.14494 v 68.68888 q 0,4.22202 -2.7606,7.14495 -2.7605,2.76054 -6.9825,2.76054 -4.222,0 -6.9826,-2.76054 -2.5981,-2.76055 -2.7605,-6.98256 -4.0596,4.70917 -11.0422,8.11925 -6.8202,3.2477 -14.4523,3.2477 -11.2045,0 -20.2981,-5.68347 -9.0936,-5.84587 -14.4523,-16.07612 -5.1963,-10.23026 -5.1963,-23.22107 0,-12.99081 5.1963,-23.22106 5.1963,-10.39265 14.1275,-16.07613 9.0936,-5.84586 19.9734,-5.84586 7.7945,0 14.6146,2.92293 6.8202,2.76055 11.5294,7.14495 v -0.16239 q 0,-4.22201 2.7605,-6.98256 2.7606,-2.92293 6.9826,-2.92293 z m -32.8018,72.26136 q 10.555,0 17.2128,-7.6321 6.6578,-7.79448 6.6578,-19.48621 0,-11.69172 -6.6578,-19.48621 -6.6578,-7.79448 -17.2128,-7.79448 -10.3926,0 -17.0504,7.79448 -6.6578,7.79449 -6.6578,19.48621 0,11.69173 6.4954,19.48621 6.6578,7.6321 17.2128,7.6321 z" style="stroke-width:1.33333325" id="path4800" />
    <path d="m 1407.3906,152.6416 q 13.8028,0 22.2468,4.3844 8.444,4.22201 8.444,11.36695 0,3.57247 -2.111,6.33302 -2.111,2.59816 -5.5211,2.59816 -2.5982,0 -4.222,-0.64954 -1.6239,-0.81192 -3.2477,-1.94862 -1.4615,-1.29908 -2.9229,-2.11101 -1.6239,-0.81192 -4.8716,-1.46146 -3.0853,-0.64954 -5.0339,-0.64954 -12.1789,0 -19.1615,7.6321 -6.8201,7.46971 -6.8201,19.64859 0,11.69173 6.9825,19.48621 6.9826,7.6321 17.8624,7.6321 7.9568,0 11.8541,-1.94862 0.9743,-0.48716 2.5982,-1.62385 1.7862,-1.29908 3.2477,-1.94863 1.4614,-0.64954 3.5724,-0.64954 4.0597,0 6.333,2.59817 2.4358,2.59816 2.4358,6.65778 0,3.89725 -4.5468,7.30733 -4.5467,3.41009 -12.0165,5.52109 -7.4697,1.94862 -15.9137,1.94862 -12.5036,0 -22.0844,-5.84586 -9.4183,-5.84586 -14.6146,-16.07612 -5.1963,-10.39264 -5.1963,-23.05868 0,-13.15319 5.3587,-23.38345 5.5211,-10.23026 15.2642,-15.91374 9.7431,-5.84586 22.0843,-5.84586 z" style="stroke-width:1.33333325" id="path4802" />
    <path d="m 1536.7506,197.78465 q 0,12.99081 -5.8458,23.38345 -5.8459,10.23026 -16.0762,15.91374 -10.0678,5.68347 -22.2467,5.68347 -12.3413,0 -22.4091,-5.68347 -10.0679,-5.68348 -15.9138,-15.91374 -5.8458,-10.39264 -5.8458,-23.38345 0,-12.99081 5.8458,-23.22106 5.8459,-10.39265 15.9138,-16.07613 10.0678,-5.84586 22.4091,-5.84586 12.1789,0 22.2467,5.84586 10.2303,5.68348 16.0762,16.07613 5.8458,10.23025 5.8458,23.22106 z m -19.4862,0 q 0,-7.95687 -3.4101,-14.1275 -3.2477,-6.33302 -8.9311,-9.74311 -5.5211,-3.41008 -12.3413,-3.41008 -6.8202,0 -12.5037,3.41008 -5.5211,3.41009 -8.9311,9.74311 -3.2477,6.17063 -3.2477,14.1275 0,7.95687 3.2477,14.1275 3.41,6.17063 8.9311,9.58072 5.6835,3.41009 12.5037,3.41009 6.8202,0 12.3413,-3.41009 5.6834,-3.41009 8.9311,-9.58072 3.4101,-6.17063 3.4101,-14.1275 z" style="stroke-width:1.33333325" id="path4804" />
    <path d="m 1594.6054,138.18933 q -5.5211,0 -7.7945,3.2477 -2.2734,3.08532 -2.2734,6.82017 v 7.6321 h 14.777 q 3.8973,0 6.4954,2.59816 2.5982,2.43578 2.5982,6.33302 0,3.89724 -2.5982,6.4954 -2.5981,2.43578 -6.4954,2.43578 h -14.777 v 57.48431 q 0,4.22202 -2.7605,7.14495 -2.7606,2.76054 -6.9826,2.76054 -4.222,0 -6.9826,-2.76054 -2.7605,-2.92293 -2.7605,-7.14495 v -57.48431 h -8.7688 q -3.8972,0 -6.4954,-2.43578 -2.5982,-2.59816 -2.5982,-6.4954 0,-3.89724 2.5982,-6.33302 2.5982,-2.59816 6.4954,-2.59816 h 8.7688 v -7.46971 q 0,-12.17888 8.2816,-19.81098 8.4441,-7.6321 24.1954,-7.6321 6.0083,0 10.3927,2.43578 4.5467,2.43577 4.5467,7.46971 0,3.89724 -2.2734,6.33302 -2.2733,2.43577 -5.521,2.43577 -0.812,0 -1.7863,-0.16238 -0.8119,-0.16239 -1.7862,-0.32477 -3.8973,-0.97431 -6.4954,-0.97431 z m 67.7146,0 q -5.5211,0 -7.7945,3.2477 -2.2734,3.08532 -2.2734,6.82017 v 7.6321 h 14.777 q 3.8973,0 6.4954,2.59816 2.5982,2.43578 2.5982,6.33302 0,3.89724 -2.5982,6.4954 -2.5981,2.43578 -6.4954,2.43578 h -14.777 v 57.48431 q 0,4.22202 -2.7606,7.14495 -2.7605,2.76054 -6.9825,2.76054 -4.222,0 -6.9826,-2.76054 -2.7605,-2.92293 -2.7605,-7.14495 v -57.48431 h -8.7688 q -3.8973,0 -6.4954,-2.43578 -2.5982,-2.59816 -2.5982,-6.4954 0,-3.89724 2.5982,-6.33302 2.5981,-2.59816 6.4954,-2.59816 h 8.7688 v -7.46971 q 0,-12.17888 8.2816,-19.81098 8.444,-7.6321 24.1954,-7.6321 6.0082,0 10.3926,2.43578 4.5468,2.43577 4.5468,7.46971 0,3.89724 -2.2734,6.33302 -2.2734,2.43577 -5.5211,2.43577 -0.8119,0 -1.7862,-0.16238 -0.8119,-0.16239 -1.7862,-0.32477 -3.8973,-0.97431 -6.4954,-0.97431 z" style="stroke-width:1.33333325" id="path4806" />
    <path d="m 1766.2438,195.67364 q -0.1624,3.89725 -3.0853,6.33302 -2.9229,2.43578 -6.8202,2.43578 h -53.587 q 1.9486,9.58072 8.9311,15.10181 6.9826,5.35871 15.7514,5.35871 6.6578,0 10.3926,-1.1367 3.7349,-1.29908 5.8459,-2.59816 2.2734,-1.46147 3.0853,-1.94862 2.9229,-1.46147 5.5211,-1.46147 3.4101,0 5.8459,2.43578 2.4357,2.43578 2.4357,5.68348 0,4.38439 -4.5467,7.95687 -4.5468,3.73485 -12.1789,6.33301 -7.6321,2.59816 -15.4266,2.59816 -13.6403,0 -23.8706,-5.68347 -10.0679,-5.68348 -15.589,-15.58897 -5.5211,-10.06787 -5.5211,-22.57152 0,-13.96512 5.8459,-24.52015 5.8459,-10.55503 15.4266,-16.07612 9.5807,-5.68348 20.4605,-5.68348 10.7174,0 20.1357,5.84586 9.5808,5.84587 15.2642,15.75136 5.6835,9.90548 5.6835,21.43482 z m -41.0834,-25.16968 q -18.8367,0 -22.2468,17.69997 h 42.5449 v -1.13669 q -0.6495,-6.82018 -6.6578,-11.69173 -6.0082,-4.87155 -13.6403,-4.87155 z" style="stroke-width:1.33333325" id="path4808" />
    <path d="m 1860.4399,195.67364 q -0.1624,3.89725 -3.0854,6.33302 -2.9229,2.43578 -6.8201,2.43578 h -53.5871 q 1.9486,9.58072 8.9312,15.10181 6.9825,5.35871 15.7513,5.35871 6.6578,0 10.3927,-1.1367 3.7348,-1.29908 5.8458,-2.59816 2.2734,-1.46147 3.0854,-1.94862 2.9229,-1.46147 5.521,-1.46147 3.4101,0 5.8459,2.43578 2.4358,2.43578 2.4358,5.68348 0,4.38439 -4.5468,7.95687 -4.5468,3.73485 -12.1789,6.33301 -7.6321,2.59816 -15.4266,2.59816 -13.6403,0 -23.8706,-5.68347 -10.0678,-5.68348 -15.5889,-15.58897 -5.5211,-10.06787 -5.5211,-22.57152 0,-13.96512 5.8458,-24.52015 5.8459,-10.55503 15.4266,-16.07612 9.5807,-5.68348 20.4605,-5.68348 10.7175,0 20.1358,5.84586 9.5807,5.84587 15.2642,15.75136 5.6835,9.90548 5.6835,21.43482 z m -41.0835,-25.16968 q -18.8366,0 -22.2467,17.69997 h 42.5449 v -1.13669 q -0.6496,-6.82018 -6.6578,-11.69173 -6.0083,-4.87155 -13.6404,-4.87155 z" style="stroke-width:1.33333325" id="path4810" />
  </g>
  <g id="g40" transform="matrix(1.3333333,0,0,-1.3333333,0,390.756)">
    <g id="g42" clip-path="url(#clipPath46)">
      <g id="g48" transform="translate(308.4468,142.1191)">
        <path inkscape:connector-curvature="0" d="m 0,0 c 0,50.698 -41.099,91.797 -91.797,91.797 -50.698,0 -91.797,-41.099 -91.797,-91.797 0,-50.698 41.099,-91.797 91.797,-91.797 C -41.099,-91.797 0,-50.698 0,0" style="fill:#29abe0;fill-opacity:1;fill-rule:nonzero;stroke:none" id="path50" />
      </g>
      <g id="g52" transform="translate(292.666,156.1543)">
        <path inkscape:connector-curvature="0" d="m 0,0 c -1.934,10.212 -7.431,16.573 -13.065,20.507 -5.826,4.068 -12.805,6.158 -19.911,6.158 h -100.85 c -3.508,0 -4.852,-3.425 -4.866,-5.141 -0.001,-0.223 0.006,-1.119 0.006,-1.119 0,0 -0.165,-44.617 0.148,-68.448 0.952,-14.068 15.048,-14.063 15.048,-14.063 0,0 46.022,0.134 68.094,0.271 1.035,0.007 2.069,0.118 3.073,0.369 12.567,3.145 13.866,14.819 13.732,21.327 C -13.332,-41.542 4.49,-23.719 0,0 m -28.375,-23.156 c -5.387,-0.673 -9.763,-0.168 -9.763,-0.168 V 9.66 h 6.628 c 4.381,0 8.607,-1.824 11.465,-5.143 2.012,-2.337 3.622,-5.627 3.622,-10.17 0,-11.108 -5.723,-15.484 -11.952,-17.503" style="fill:#ffffff;fill-opacity:1;fill-rule:nonzero;stroke:none" id="path54" />
      </g>
      <g id="g56" transform="translate(203.374,112.5498)">
        <path inkscape:connector-curvature="0" d="m 0,0 c 1.097,-0.552 1.798,0.135 1.798,0.135 0,0 16.051,14.649 23.282,23.087 6.432,7.548 6.851,20.267 -4.194,25.019 C 9.841,52.994 0.753,42.65 0.753,42.65 c -7.88,8.667 -19.808,8.229 -25.324,2.364 -5.517,-5.867 -3.591,-15.934 0.525,-21.537 3.863,-5.26 20.843,-20.395 23.417,-22.955 0,0 0.188,-0.196 0.629,-0.522" style="fill:#ff5e5b;fill-opacity:1;fill-rule:nonzero;stroke:none" id="path58" />
      </g>
    </g>
  </g>
</svg>
